<svg xmlns="http://www.w3.org/2000/svg" version="1.1" xmlns:xlink="http://www.w3.org/1999/xlink" xmlns:svgjs="http://svgjs.dev/svgjs" width="2000" height="1538" viewBox="0 0 2000 1538"><g transform="matrix(1,0,0,1,-0.5305025283064424,0.000049720379479367693)"><svg viewBox="0 0 260 200" data-background-color="#ffffff" preserveAspectRatio="xMidYMid meet" height="1538" width="2000" xmlns="http://www.w3.org/2000/svg" xmlns:xlink="http://www.w3.org/1999/xlink"><g id="tight-bounds" transform="matrix(1,0,0,1,0.06896532867983751,-0.00000129311779062391)"><svg viewBox="0 0 259.8620689655172 199.99999999999997" height="199.99999999999997" width="259.8620689655172"><g><svg viewBox="0 0 259.8620689655172 199.99999999999997" height="199.99999999999997" width="259.8620689655172"><g><svg viewBox="0 0 259.8620689655172 199.99999999999997" height="199.99999999999997" width="259.8620689655172"><g id="textblocktransform"><svg viewBox="0 0 259.8620689655172 199.99999999999997" height="199.99999999999997" width="259.8620689655172" id="textblock"><g><svg viewBox="0 0 259.8620689655172 199.99999999999997" height="199.99999999999997" width="259.8620689655172"><g transform="matrix(1,0,0,1,0,0)"><svg width="259.8620689655172" viewBox="-0.9300000667572021 -34.959999084472656 46 35.39999771118164" height="199.99999999999997" data-palette-color="#ed3b43"><path d="M19.87-34.96L31.1-34.23 22.17-0.24 10.06 0.44-0.93-33.89 10.64-34.96 15.33-14.94 19.87-34.96ZM32.08-33.69L45.07-34.38 42.38-1.12 32.08-0.59 32.08-33.69Z" opacity="1" transform="matrix(1,0,0,1,0,0)" fill="#ed3b43" class="undefined-text-0" data-fill-palette-color="primary" id="text-0"></path></svg></g></svg></g></svg></g></svg></g></svg></g><defs></defs></svg><rect width="259.8620689655172" height="199.99999999999997" fill="none" stroke="none" visibility="hidden"></rect></g></svg></g></svg>